<mxfile host="Electron" modified="2023-09-26T13:19:14.961Z" agent="Mozilla/5.0 (X11; Linux x86_64) AppleWebKit/537.36 (KHTML, like Gecko) draw.io/21.7.5 Chrome/114.0.5735.289 Electron/25.8.1 Safari/537.36" etag="D3zdDZdRBEBwv8Y-Qe3y" version="21.7.5" type="device">
  <diagram id="DO8CfTBb1RtQJmXjcqB2" name="Page-1">
    <mxGraphModel dx="2284" dy="3070" grid="1" gridSize="10" guides="1" tooltips="1" connect="1" arrows="1" fold="1" page="1" pageScale="1" pageWidth="850" pageHeight="1100" math="0" shadow="0">
      <root>
        <mxCell id="0" />
        <mxCell id="1" parent="0" />
        <mxCell id="28" style="edgeStyle=none;html=1;exitX=0.5;exitY=0.5;exitDx=0;exitDy=0;exitPerimeter=0;" parent="1" source="6" target="23" edge="1">
          <mxGeometry relative="1" as="geometry">
            <Array as="points">
              <mxPoint x="-765" y="-1580" />
            </Array>
            <mxPoint x="-770" y="-1690" as="targetPoint" />
          </mxGeometry>
        </mxCell>
        <mxCell id="6" value="&lt;font color=&quot;#00ff00&quot;&gt;&lt;b&gt;Client&lt;/b&gt;&lt;/font&gt;" style="shape=umlActor;verticalLabelPosition=bottom;verticalAlign=top;html=1;outlineConnect=0;fillColor=#fad7ac;strokeColor=#b46504;" parent="1" vertex="1">
          <mxGeometry x="-720" y="-1590" width="30" height="60" as="geometry" />
        </mxCell>
        <mxCell id="15" value="" style="endArrow=none;html=1;" parent="1" source="24" target="12" edge="1">
          <mxGeometry width="50" height="50" relative="1" as="geometry">
            <mxPoint x="-641.95" y="-1822" as="sourcePoint" />
            <mxPoint x="-305" y="-1650" as="targetPoint" />
          </mxGeometry>
        </mxCell>
        <mxCell id="17" value="" style="endArrow=none;html=1;" parent="1" source="23" target="16" edge="1">
          <mxGeometry width="50" height="50" relative="1" as="geometry">
            <mxPoint x="-775" y="-1724.1803278688524" as="sourcePoint" />
            <mxPoint x="-335" y="-1620" as="targetPoint" />
          </mxGeometry>
        </mxCell>
        <mxCell id="19" value="" style="endArrow=none;html=1;" parent="1" source="23" target="18" edge="1">
          <mxGeometry width="50" height="50" relative="1" as="geometry">
            <mxPoint x="-775" y="-1719.2622950819673" as="sourcePoint" />
            <mxPoint x="-335" y="-1630" as="targetPoint" />
          </mxGeometry>
        </mxCell>
        <mxCell id="22" value="" style="endArrow=none;html=1;" parent="1" source="6" target="21" edge="1">
          <mxGeometry width="50" height="50" relative="1" as="geometry">
            <mxPoint x="-385" y="-1580" as="sourcePoint" />
            <mxPoint x="-335" y="-1630" as="targetPoint" />
          </mxGeometry>
        </mxCell>
        <mxCell id="23" value="&lt;font color=&quot;#00ff00&quot;&gt;&lt;b&gt;Visiteur&lt;/b&gt;&lt;/font&gt;" style="shape=umlActor;verticalLabelPosition=bottom;verticalAlign=top;html=1;outlineConnect=0;fillColor=#fad7ac;strokeColor=#b46504;" parent="1" vertex="1">
          <mxGeometry x="-780" y="-1750" width="30" height="60" as="geometry" />
        </mxCell>
        <mxCell id="24" value="&lt;font color=&quot;#00ff00&quot;&gt;&lt;b&gt;Futur client&lt;/b&gt;&lt;/font&gt;" style="shape=umlActor;verticalLabelPosition=bottom;verticalAlign=top;html=1;outlineConnect=0;fillColor=#fad7ac;strokeColor=#b46504;" parent="1" vertex="1">
          <mxGeometry x="-715" y="-1930" width="30" height="60" as="geometry" />
        </mxCell>
        <mxCell id="29" value="" style="swimlane;startSize=0;" parent="1" vertex="1">
          <mxGeometry x="-660" y="-2160" width="980" height="960" as="geometry" />
        </mxCell>
        <mxCell id="21" value="&lt;b&gt;&lt;font color=&quot;#000000&quot;&gt;Modifier son compte&lt;/font&gt;&lt;/b&gt;" style="ellipse;whiteSpace=wrap;html=1;fillColor=#dae8fc;gradientColor=#7ea6e0;strokeColor=#6c8ebf;" parent="29" vertex="1">
          <mxGeometry x="105" y="660" width="90" height="70" as="geometry" />
        </mxCell>
        <mxCell id="9" value="&lt;b&gt;&lt;font color=&quot;#000000&quot;&gt;Commander un produit&lt;/font&gt;&lt;/b&gt;" style="ellipse;whiteSpace=wrap;html=1;fillColor=#dae8fc;gradientColor=#7ea6e0;strokeColor=#6c8ebf;" parent="29" vertex="1">
          <mxGeometry x="100" y="560" width="100" height="70" as="geometry" />
        </mxCell>
        <mxCell id="16" value="&lt;b&gt;&lt;font color=&quot;#000000&quot;&gt;Parcourir le catalogue&lt;/font&gt;&lt;/b&gt;" style="ellipse;whiteSpace=wrap;html=1;fillColor=#dae8fc;gradientColor=#7ea6e0;strokeColor=#6c8ebf;" parent="29" vertex="1">
          <mxGeometry x="105" y="350" width="90" height="70" as="geometry" />
        </mxCell>
        <mxCell id="18" value="&lt;b&gt;&lt;font color=&quot;#000000&quot;&gt;Ajouter un article au panier&lt;/font&gt;&lt;/b&gt;" style="ellipse;whiteSpace=wrap;html=1;fillColor=#dae8fc;gradientColor=#7ea6e0;strokeColor=#6c8ebf;" parent="29" vertex="1">
          <mxGeometry x="100" y="450" width="100" height="70" as="geometry" />
        </mxCell>
        <mxCell id="31" value="&lt;b&gt;&lt;font color=&quot;#000000&quot;&gt;Authentifier client&lt;/font&gt;&lt;/b&gt;" style="ellipse;whiteSpace=wrap;html=1;fillColor=#d5e8d4;gradientColor=#97d077;strokeColor=#82b366;" parent="29" vertex="1">
          <mxGeometry x="330" y="560" width="115" height="60" as="geometry" />
        </mxCell>
        <mxCell id="46" value="" style="endArrow=classic;html=1;" parent="29" source="21" target="31" edge="1">
          <mxGeometry relative="1" as="geometry">
            <mxPoint x="224.93328005646435" y="560.352204019292" as="sourcePoint" />
            <mxPoint x="311.04441709635194" y="599.738895725912" as="targetPoint" />
          </mxGeometry>
        </mxCell>
        <mxCell id="47" value="&amp;lt;&amp;lt;Include&amp;gt;&amp;gt;" style="edgeLabel;resizable=0;html=1;align=center;verticalAlign=middle;" parent="46" connectable="0" vertex="1">
          <mxGeometry relative="1" as="geometry" />
        </mxCell>
        <mxCell id="53" value="&lt;b&gt;&lt;font color=&quot;#000000&quot;&gt;Gérer les clients&lt;/font&gt;&lt;/b&gt;" style="ellipse;whiteSpace=wrap;html=1;fillColor=#dae8fc;gradientColor=#7ea6e0;strokeColor=#6c8ebf;" parent="29" vertex="1">
          <mxGeometry x="754.52" y="230" width="120" height="50" as="geometry" />
        </mxCell>
        <mxCell id="55" value="&lt;font color=&quot;#000000&quot;&gt;&lt;b&gt;Gérer les catégories&lt;/b&gt;&lt;/font&gt;" style="ellipse;whiteSpace=wrap;html=1;fillColor=#dae8fc;gradientColor=#7ea6e0;strokeColor=#6c8ebf;" parent="29" vertex="1">
          <mxGeometry x="752.5" y="320" width="120" height="50" as="geometry" />
        </mxCell>
        <mxCell id="56" value="&lt;b&gt;&lt;font color=&quot;#000000&quot;&gt;Gérer les produits&lt;/font&gt;&lt;/b&gt;" style="ellipse;whiteSpace=wrap;html=1;fillColor=#dae8fc;gradientColor=#7ea6e0;strokeColor=#6c8ebf;" parent="29" vertex="1">
          <mxGeometry x="752.5" y="420" width="120" height="50" as="geometry" />
        </mxCell>
        <mxCell id="57" value="&lt;b&gt;&lt;font color=&quot;#000000&quot;&gt;Gérer les commandes&lt;/font&gt;&lt;/b&gt;" style="ellipse;whiteSpace=wrap;html=1;fillColor=#dae8fc;gradientColor=#7ea6e0;strokeColor=#6c8ebf;" parent="29" vertex="1">
          <mxGeometry x="747.5" y="510" width="130" height="40" as="geometry" />
        </mxCell>
        <mxCell id="58" value="&lt;font color=&quot;#000000&quot;&gt;&lt;b&gt;Authentifier admin&lt;/b&gt;&lt;/font&gt;" style="ellipse;whiteSpace=wrap;html=1;fillColor=#d5e8d4;gradientColor=#97d077;strokeColor=#82b366;" parent="29" vertex="1">
          <mxGeometry x="510" y="460" width="130" height="60" as="geometry" />
        </mxCell>
        <mxCell id="61" value="" style="endArrow=classic;html=1;exitX=0.092;exitY=0.8;exitDx=0;exitDy=0;exitPerimeter=0;" parent="29" source="55" target="58" edge="1">
          <mxGeometry relative="1" as="geometry">
            <mxPoint x="454.52" y="380" as="sourcePoint" />
            <mxPoint x="646.55" y="445" as="targetPoint" />
          </mxGeometry>
        </mxCell>
        <mxCell id="62" value="&amp;lt;&amp;lt;Include&amp;gt;&amp;gt;" style="edgeLabel;resizable=0;html=1;align=center;verticalAlign=middle;" parent="61" connectable="0" vertex="1">
          <mxGeometry relative="1" as="geometry" />
        </mxCell>
        <mxCell id="63" value="" style="endArrow=classic;html=1;" parent="29" source="56" target="58" edge="1">
          <mxGeometry relative="1" as="geometry">
            <mxPoint x="605.56" y="760" as="sourcePoint" />
            <mxPoint x="474.93045299841833" y="821.3874028418466" as="targetPoint" />
          </mxGeometry>
        </mxCell>
        <mxCell id="64" value="&amp;lt;&amp;lt;Include&amp;gt;&amp;gt;" style="edgeLabel;resizable=0;html=1;align=center;verticalAlign=middle;" parent="63" connectable="0" vertex="1">
          <mxGeometry relative="1" as="geometry" />
        </mxCell>
        <mxCell id="65" value="" style="endArrow=classic;html=1;" parent="29" source="57" target="58" edge="1">
          <mxGeometry relative="1" as="geometry">
            <mxPoint x="615.56" y="770" as="sourcePoint" />
            <mxPoint x="459.48871130908424" y="839.4497118681991" as="targetPoint" />
          </mxGeometry>
        </mxCell>
        <mxCell id="66" value="&amp;lt;&amp;lt;Include&amp;gt;&amp;gt;" style="edgeLabel;resizable=0;html=1;align=center;verticalAlign=middle;" parent="65" connectable="0" vertex="1">
          <mxGeometry relative="1" as="geometry" />
        </mxCell>
        <mxCell id="70" value="&lt;span style=&quot;color: rgb(36, 41, 46); font-family: -apple-system, BlinkMacSystemFont, &amp;quot;Segoe UI&amp;quot;, Helvetica, Arial, sans-serif, &amp;quot;Apple Color Emoji&amp;quot;, &amp;quot;Segoe UI Emoji&amp;quot;; font-style: normal; font-variant-ligatures: normal; font-variant-caps: normal; letter-spacing: normal; orphans: 2; text-align: left; text-indent: 0px; text-transform: none; widows: 2; word-spacing: 0px; -webkit-text-stroke-width: 0px; text-decoration-thickness: initial; text-decoration-style: initial; text-decoration-color: initial; float: none; display: inline !important;&quot;&gt;&lt;font style=&quot;font-size: 14px;&quot;&gt;&lt;b&gt;gèrer&amp;nbsp;les fournisseurs&lt;/b&gt;&lt;/font&gt;&lt;/span&gt;" style="ellipse;whiteSpace=wrap;html=1;fillColor=#dae8fc;gradientColor=#7ea6e0;strokeColor=#6c8ebf;" parent="29" vertex="1">
          <mxGeometry x="738.51" y="590" width="152.02" height="50" as="geometry" />
        </mxCell>
        <mxCell id="12" value="&lt;b&gt;&lt;font color=&quot;#000000&quot;&gt;Créer un compte&lt;/font&gt;&lt;/b&gt;" style="ellipse;whiteSpace=wrap;html=1;fillColor=#dae8fc;gradientColor=#7ea6e0;strokeColor=#6c8ebf;" parent="29" vertex="1">
          <mxGeometry x="105" y="230" width="100" height="55" as="geometry" />
        </mxCell>
        <mxCell id="11" value="&lt;p style=&quot;line-height: 300%;&quot;&gt;&lt;b&gt;&lt;font color=&quot;#333333&quot; style=&quot;font-size: 16px; background-color: rgb(153, 204, 255);&quot;&gt;Site E-Commerce&lt;/font&gt;&lt;/b&gt;&lt;/p&gt;&lt;p style=&quot;line-height: 300%;&quot;&gt;&lt;b&gt;&lt;font color=&quot;#333333&quot; style=&quot;font-size: 16px; background-color: rgb(153, 204, 255);&quot;&gt;( MAXOTEK )&lt;/font&gt;&lt;/b&gt;&lt;/p&gt;" style="text;html=1;strokeColor=none;fillColor=none;align=center;verticalAlign=middle;whiteSpace=wrap;rounded=0;" parent="29" vertex="1">
          <mxGeometry x="105" y="40" width="780" as="geometry" />
        </mxCell>
        <mxCell id="84" value="" style="endArrow=classic;html=1;exitX=1;exitY=0.5;exitDx=0;exitDy=0;" parent="29" source="9" target="31" edge="1">
          <mxGeometry relative="1" as="geometry">
            <mxPoint x="223.11855481092175" y="634.9853679148823" as="sourcePoint" />
            <mxPoint x="314.7327654652843" y="566.5775884884281" as="targetPoint" />
          </mxGeometry>
        </mxCell>
        <mxCell id="85" value="&amp;lt;&amp;lt;Include&amp;gt;&amp;gt;" style="edgeLabel;resizable=0;html=1;align=center;verticalAlign=middle;" parent="84" connectable="0" vertex="1">
          <mxGeometry relative="1" as="geometry" />
        </mxCell>
        <mxCell id="87" value="" style="endArrow=classic;html=1;" parent="29" source="53" target="58" edge="1">
          <mxGeometry relative="1" as="geometry">
            <mxPoint x="780.56" y="370" as="sourcePoint" />
            <mxPoint x="621.9986486239563" y="475.3342342506958" as="targetPoint" />
            <Array as="points">
              <mxPoint x="635" y="340" />
            </Array>
          </mxGeometry>
        </mxCell>
        <mxCell id="88" value="&amp;lt;&amp;lt;Include&amp;gt;&amp;gt;" style="edgeLabel;resizable=0;html=1;align=center;verticalAlign=middle;" parent="87" connectable="0" vertex="1">
          <mxGeometry relative="1" as="geometry" />
        </mxCell>
        <mxCell id="lHNgd1rUW6jhNlqDqd3p-88" value="&lt;b&gt;&lt;font color=&quot;#000000&quot;&gt;Afficher l&#39;erreur de connexion&lt;/font&gt;&lt;/b&gt;" style="ellipse;whiteSpace=wrap;html=1;fillColor=#f8cecc;gradientColor=#ea6b66;strokeColor=#b85450;" parent="29" vertex="1">
          <mxGeometry x="327.5" y="339.99999999999994" width="120" height="60" as="geometry" />
        </mxCell>
        <mxCell id="lHNgd1rUW6jhNlqDqd3p-89" value="" style="endArrow=classic;html=1;rounded=0;" parent="29" source="lHNgd1rUW6jhNlqDqd3p-88" target="31" edge="1">
          <mxGeometry width="50" height="50" relative="1" as="geometry">
            <mxPoint x="507.61" y="537.4200000000001" as="sourcePoint" />
            <mxPoint x="557.61" y="487.42" as="targetPoint" />
          </mxGeometry>
        </mxCell>
        <mxCell id="lHNgd1rUW6jhNlqDqd3p-90" value="&amp;lt;&amp;lt;étendre&amp;gt;&amp;gt;" style="edgeLabel;html=1;align=center;verticalAlign=middle;resizable=0;points=[];" parent="lHNgd1rUW6jhNlqDqd3p-89" vertex="1" connectable="0">
          <mxGeometry x="-0.1143" y="-2" relative="1" as="geometry">
            <mxPoint as="offset" />
          </mxGeometry>
        </mxCell>
        <mxCell id="lHNgd1rUW6jhNlqDqd3p-93" value="&lt;b style=&quot;&quot;&gt;&lt;font color=&quot;#000000&quot;&gt;gérer les administrateur&lt;/font&gt;&lt;/b&gt;" style="ellipse;whiteSpace=wrap;html=1;fillColor=#dae8fc;gradientColor=#7ea6e0;strokeColor=#6c8ebf;" parent="29" vertex="1">
          <mxGeometry x="752.5" y="150" width="120" height="40" as="geometry" />
        </mxCell>
        <mxCell id="lHNgd1rUW6jhNlqDqd3p-95" value="" style="endArrow=classic;html=1;" parent="29" source="lHNgd1rUW6jhNlqDqd3p-93" target="58" edge="1">
          <mxGeometry relative="1" as="geometry">
            <mxPoint x="785" y="284" as="sourcePoint" />
            <mxPoint x="597" y="470" as="targetPoint" />
            <Array as="points">
              <mxPoint x="590" y="270" />
            </Array>
          </mxGeometry>
        </mxCell>
        <mxCell id="lHNgd1rUW6jhNlqDqd3p-96" value="&amp;lt;&amp;lt;Include&amp;gt;&amp;gt;" style="edgeLabel;resizable=0;html=1;align=center;verticalAlign=middle;" parent="lHNgd1rUW6jhNlqDqd3p-95" connectable="0" vertex="1">
          <mxGeometry relative="1" as="geometry" />
        </mxCell>
        <mxCell id="lHNgd1rUW6jhNlqDqd3p-97" value="&lt;font color=&quot;#000000&quot;&gt;&lt;b&gt;gérer les modes des paiements&lt;/b&gt;&lt;/font&gt;" style="ellipse;whiteSpace=wrap;html=1;fillColor=#dae8fc;gradientColor=#7ea6e0;strokeColor=#6c8ebf;" parent="29" vertex="1">
          <mxGeometry x="745" y="670" width="129.52" height="50" as="geometry" />
        </mxCell>
        <mxCell id="lHNgd1rUW6jhNlqDqd3p-99" value="" style="endArrow=classic;html=1;" parent="29" source="70" target="58" edge="1">
          <mxGeometry relative="1" as="geometry">
            <mxPoint x="780" y="565" as="sourcePoint" />
            <mxPoint x="638" y="518" as="targetPoint" />
            <Array as="points">
              <mxPoint x="680" y="590" />
            </Array>
          </mxGeometry>
        </mxCell>
        <mxCell id="lHNgd1rUW6jhNlqDqd3p-100" value="&amp;lt;&amp;lt;Include&amp;gt;&amp;gt;" style="edgeLabel;resizable=0;html=1;align=center;verticalAlign=middle;" parent="lHNgd1rUW6jhNlqDqd3p-99" connectable="0" vertex="1">
          <mxGeometry relative="1" as="geometry" />
        </mxCell>
        <mxCell id="lHNgd1rUW6jhNlqDqd3p-101" value="" style="endArrow=classic;html=1;" parent="29" source="lHNgd1rUW6jhNlqDqd3p-97" target="58" edge="1">
          <mxGeometry relative="1" as="geometry">
            <mxPoint x="790" y="575" as="sourcePoint" />
            <mxPoint x="648" y="528" as="targetPoint" />
            <Array as="points">
              <mxPoint x="620" y="650" />
            </Array>
          </mxGeometry>
        </mxCell>
        <mxCell id="lHNgd1rUW6jhNlqDqd3p-102" value="&amp;lt;&amp;lt;Include&amp;gt;&amp;gt;" style="edgeLabel;resizable=0;html=1;align=center;verticalAlign=middle;" parent="lHNgd1rUW6jhNlqDqd3p-101" connectable="0" vertex="1">
          <mxGeometry relative="1" as="geometry" />
        </mxCell>
        <mxCell id="lHNgd1rUW6jhNlqDqd3p-109" value="" style="endArrow=classic;html=1;rounded=0;" parent="29" source="lHNgd1rUW6jhNlqDqd3p-88" target="58" edge="1">
          <mxGeometry width="50" height="50" relative="1" as="geometry">
            <mxPoint x="399" y="459" as="sourcePoint" />
            <mxPoint x="376" y="518" as="targetPoint" />
          </mxGeometry>
        </mxCell>
        <mxCell id="lHNgd1rUW6jhNlqDqd3p-110" value="&amp;lt;&amp;lt;étendre&amp;gt;&amp;gt;" style="edgeLabel;html=1;align=center;verticalAlign=middle;resizable=0;points=[];" parent="lHNgd1rUW6jhNlqDqd3p-109" vertex="1" connectable="0">
          <mxGeometry x="-0.1143" y="-2" relative="1" as="geometry">
            <mxPoint as="offset" />
          </mxGeometry>
        </mxCell>
        <mxCell id="lHNgd1rUW6jhNlqDqd3p-115" value="&lt;b&gt;&lt;font color=&quot;#000000&quot;&gt;gérer les commerciales&lt;/font&gt;&lt;/b&gt;" style="ellipse;whiteSpace=wrap;html=1;fillColor=#dae8fc;gradientColor=#7ea6e0;strokeColor=#6c8ebf;" parent="29" vertex="1">
          <mxGeometry x="737.5" y="750" width="150" height="40" as="geometry" />
        </mxCell>
        <mxCell id="lHNgd1rUW6jhNlqDqd3p-117" value="" style="endArrow=classic;html=1;" parent="29" source="lHNgd1rUW6jhNlqDqd3p-115" target="58" edge="1">
          <mxGeometry relative="1" as="geometry">
            <mxPoint x="765" y="692" as="sourcePoint" />
            <mxPoint x="593" y="530" as="targetPoint" />
            <Array as="points">
              <mxPoint x="575" y="690" />
            </Array>
          </mxGeometry>
        </mxCell>
        <mxCell id="lHNgd1rUW6jhNlqDqd3p-118" value="&amp;lt;&amp;lt;Include&amp;gt;&amp;gt;" style="edgeLabel;resizable=0;html=1;align=center;verticalAlign=middle;" parent="lHNgd1rUW6jhNlqDqd3p-117" connectable="0" vertex="1">
          <mxGeometry relative="1" as="geometry" />
        </mxCell>
        <mxCell id="39" value="" style="endArrow=none;html=1;" parent="1" source="6" target="9" edge="1">
          <mxGeometry width="50" height="50" relative="1" as="geometry">
            <mxPoint x="-365" y="-1580" as="sourcePoint" />
            <mxPoint x="-315" y="-1630" as="targetPoint" />
          </mxGeometry>
        </mxCell>
        <mxCell id="48" value="&lt;font color=&quot;#00cc00&quot;&gt;&lt;b&gt;Administrateur&lt;/b&gt;&lt;/font&gt;" style="shape=umlActor;verticalLabelPosition=bottom;verticalAlign=top;html=1;outlineConnect=0;fillColor=#fff2cc;strokeColor=#d6b656;gradientColor=#ffd966;" parent="1" vertex="1">
          <mxGeometry x="440" y="-1700" width="30" height="60" as="geometry" />
        </mxCell>
        <mxCell id="67" value="" style="endArrow=none;html=1;" parent="1" source="55" target="48" edge="1">
          <mxGeometry width="50" height="50" relative="1" as="geometry">
            <mxPoint x="-145" y="-1540" as="sourcePoint" />
            <mxPoint x="-95" y="-1590" as="targetPoint" />
          </mxGeometry>
        </mxCell>
        <mxCell id="68" value="" style="endArrow=none;html=1;" parent="1" source="56" target="48" edge="1">
          <mxGeometry width="50" height="50" relative="1" as="geometry">
            <mxPoint x="-145" y="-1540" as="sourcePoint" />
            <mxPoint x="-95" y="-1590" as="targetPoint" />
          </mxGeometry>
        </mxCell>
        <mxCell id="69" value="" style="endArrow=none;html=1;" parent="1" source="57" target="48" edge="1">
          <mxGeometry width="50" height="50" relative="1" as="geometry">
            <mxPoint x="-145" y="-1540" as="sourcePoint" />
            <mxPoint x="-95" y="-1590" as="targetPoint" />
          </mxGeometry>
        </mxCell>
        <mxCell id="71" value="" style="endArrow=none;html=1;exitX=1;exitY=0;exitDx=0;exitDy=0;" parent="1" source="70" target="48" edge="1">
          <mxGeometry width="50" height="50" relative="1" as="geometry">
            <mxPoint x="-145" y="-1540" as="sourcePoint" />
            <mxPoint x="-95" y="-1590" as="targetPoint" />
          </mxGeometry>
        </mxCell>
        <mxCell id="86" value="" style="endArrow=none;html=1;entryX=1;entryY=1;entryDx=0;entryDy=0;exitX=0.25;exitY=0.1;exitDx=0;exitDy=0;exitPerimeter=0;" parent="1" source="48" target="53" edge="1">
          <mxGeometry width="50" height="50" relative="1" as="geometry">
            <mxPoint x="-55" y="-1820" as="sourcePoint" />
            <mxPoint x="-5" y="-1870" as="targetPoint" />
          </mxGeometry>
        </mxCell>
        <mxCell id="lHNgd1rUW6jhNlqDqd3p-92" value="" style="endArrow=classic;html=1;rounded=0;" parent="1" source="24" target="23" edge="1">
          <mxGeometry width="50" height="50" relative="1" as="geometry">
            <mxPoint x="-120" y="-1560" as="sourcePoint" />
            <mxPoint x="-770" y="-1750" as="targetPoint" />
            <Array as="points">
              <mxPoint x="-765" y="-1830" />
            </Array>
          </mxGeometry>
        </mxCell>
        <mxCell id="lHNgd1rUW6jhNlqDqd3p-94" value="" style="endArrow=none;html=1;rounded=0;" parent="1" source="48" target="lHNgd1rUW6jhNlqDqd3p-93" edge="1">
          <mxGeometry width="50" height="50" relative="1" as="geometry">
            <mxPoint x="-125" y="-1670" as="sourcePoint" />
            <mxPoint x="-75" y="-1720" as="targetPoint" />
            <Array as="points">
              <mxPoint x="375" y="-1850" />
            </Array>
          </mxGeometry>
        </mxCell>
        <mxCell id="lHNgd1rUW6jhNlqDqd3p-112" value="" style="endArrow=none;html=1;rounded=0;" parent="1" source="lHNgd1rUW6jhNlqDqd3p-97" target="48" edge="1">
          <mxGeometry width="50" height="50" relative="1" as="geometry">
            <mxPoint x="-145" y="-1600" as="sourcePoint" />
            <mxPoint x="-95" y="-1650" as="targetPoint" />
            <Array as="points">
              <mxPoint x="355" y="-1510" />
            </Array>
          </mxGeometry>
        </mxCell>
        <mxCell id="lHNgd1rUW6jhNlqDqd3p-116" value="" style="endArrow=none;html=1;rounded=0;" parent="1" source="lHNgd1rUW6jhNlqDqd3p-115" target="48" edge="1">
          <mxGeometry width="50" height="50" relative="1" as="geometry">
            <mxPoint x="-145" y="-1510" as="sourcePoint" />
            <mxPoint x="-95" y="-1560" as="targetPoint" />
            <Array as="points">
              <mxPoint x="375" y="-1430" />
            </Array>
          </mxGeometry>
        </mxCell>
      </root>
    </mxGraphModel>
  </diagram>
</mxfile>
